<?xml version="1.0" encoding="UTF-8" standalone="no"?>
<svg
   xmlns:dc="http://purl.org/dc/elements/1.1/"
   xmlns:cc="http://creativecommons.org/ns#"
   xmlns:rdf="http://www.w3.org/1999/02/22-rdf-syntax-ns#"
   xmlns:svg="http://www.w3.org/2000/svg"
   xmlns="http://www.w3.org/2000/svg"
   viewBox="0 0 793.70135 1122.52"
   height="1122.52"
   width="793.70135"
   xml:space="preserve"
   id="svg2"
   version="1.1"><metadata
     id="metadata8"><rdf:RDF><cc:Work
         rdf:about=""><dc:format>image/svg+xml</dc:format><dc:type
           rdf:resource="http://purl.org/dc/dcmitype/StillImage" /></cc:Work></rdf:RDF></metadata><defs
     id="defs6" /><g
     transform="matrix(1.3333333,0,0,-1.3333333,0,1122.52)"
     id="g10"><text
       id="text14"
       style="font-variant:normal;font-weight:normal;font-size:17.2154007px;font-family:CMR17;-inkscape-font-specification:CMR17;writing-mode:lr-tb;fill:#000000;fill-opacity:1;fill-rule:nonzero;stroke:none"
       transform="matrix(1,0,0,-1,172.919,747.564)"><tspan
         id="tspan12"
         y="0"
         x="0 10.814714 21.629429 31.994822 47.109943 58.602943 66.497925 79.789932 88.585281 97.38063 103.47661 110.47295 121.76797 130.56331 137.55965 144.556 153.35133 159.44731 163.74428 169.39265 182.936 191.71414 200.50949 213.8015 227.09351 234.98849 241.08446">EPFLComputerSecuritySummary</tspan></text>
<text
       id="text20"
       style="font-variant:normal;font-weight:normal;font-size:11.9552002px;font-family:CMR12;-inkscape-font-specification:CMR12;writing-mode:lr-tb;fill:#000000;fill-opacity:1;fill-rule:nonzero;stroke:none"
       transform="matrix(1,0,0,-1,258.425,718.673)"><tspan
         id="tspan16"
         y="0"
         x="0 10.726206 16.579472 21.132011 25.684551 32.188179 35.439995 41.293262 49.807755 56.961746 62.16465 65.416466 68.668282 73.871178">MatthiasZeller</tspan><tspan
         id="tspan18"
         y="23.313"
         x="13.444 19.457466 25.961094 32.464722 41.565022 47.418289 53.271553 59.124821">June2020</tspan></text>
<text
       id="text24"
       style="font-variant:normal;font-weight:normal;font-size:14.34619999px;font-family:CMBX12;-inkscape-font-specification:CMBX12;writing-mode:lr-tb;fill:#000000;fill-opacity:1;fill-rule:nonzero;stroke:none"
       transform="matrix(1,0,0,-1,42.52,658.498)"><tspan
         id="tspan22"
         y="0"
         x="0 11.656287 19.726025 28.247667 34.524132 41.888035 50.395332 56.671795">Contents</tspan></text>
<text
       id="text28"
       style="font-variant:normal;font-weight:normal;font-size:9.96259975px;font-family:CMBX10;-inkscape-font-specification:CMBX10;writing-mode:lr-tb;fill:#000000;fill-opacity:1;fill-rule:nonzero;stroke:none"
       transform="matrix(1,0,0,-1,42.52,636.291)"><tspan
         id="tspan26"
         y="0"
         x="0 14.9439 23.605385 28.697269 33.789154 39.04044 43.559475 51.894188 56.986073 62.714565 68.760872 73.216141 77.934433 83.662926 244.4035">1Accesscontrol2</tspan></text>
<text
       id="text70"
       style="font-variant:normal;font-weight:normal;font-size:9.96259975px;font-family:CMR10;-inkscape-font-specification:CMR10;writing-mode:lr-tb;fill:#000000;fill-opacity:1;fill-rule:nonzero;stroke:none"
       transform="matrix(1,0,0,-1,57.464,624.163)"><tspan
         id="tspan30"
         y="0"
         x="0 4.9812999 7.7489104 22.911987 30.383938 34.811317 39.238697 43.666077 47.595325 54.852081 62.047073 67.028374 72.284637 76.159096 80.061447 85.042747 91.127899 100.26062 105.24192 109.11637 113.01872 115.78633 124.36214 128.23659 135.43956 142.63454 151.76726 165.76372 173.51262 181.26154 189.01045 196.75935 204.50827 212.25717">1.1AccessControlMatrix(ACM).......</tspan><tspan
         id="tspan32"
         y="0"
         x="230.20779">2</tspan><tspan
         id="tspan34"
         y="12.129"
         x="0 4.9812999 7.7489104 22.911987 29.828024 35.086285 40.900459 45.327839 52.584595 57.565895 63.928013 68.909309 73.336693 77.764069 82.191452 86.120697 93.367493 97.794876 102.77618 108.0424 111.91686 115.81921 120.80051 127.02514 134.77405 142.52296 150.26192 158.01082 165.75974 173.50864 181.25755 189.00647 196.75537 204.50429 212.25319">1.2Typesofaccesscontrol............</tspan><tspan
         id="tspan36"
         y="12.129"
         x="230.21378">2</tspan><tspan
         id="tspan38"
         y="24.257999"
         x="0 4.9812999 7.7489104 22.911987 30.383938 35.086285 45.608784 49.483238 57.782085 61.711334 65.585785 70.567085 74.469437 82.214363 87.195663 96.058395 103.25139 110.44638 127.02116 134.77007 142.51898 150.26788 158.0168 165.7657 173.51462 181.26353 189.01244 196.76135 204.51025 212.25917">1.3HowtostoreanACM............</tspan><tspan
         id="tspan40"
         y="24.257999"
         x="230.20978">2</tspan><tspan
         id="tspan42"
         y="36.386002"
         x="22.914 27.8953 30.66291 35.644211 38.411819 54.790337 62.262283 66.689667 71.117043 75.554382 79.483635 86.730431 93.925423 98.906723 104.16299 108.03745 111.9398 116.9211 123.00625 129.23288 132.00049 135.92973 143.1317 147.00615 154.19916 161.39413 167.62076 181.25858 189.00748 196.75639 204.50529 212.25421">1.3.1AccessControlList(ACL).....</tspan><tspan
         id="tspan44"
         y="36.386002"
         x="230.21478">2</tspan><tspan
         id="tspan46"
         y="48.514999"
         x="22.914 27.8953 30.66291 35.644211 38.411819 54.790337 61.985325 66.966621 72.501846 77.483147 83.018364 85.785973 88.553589 91.321198 94.916702 103.77146 111.52037 119.26928 127.01819 134.76711 142.51601 150.26492 158.01382 165.76274 173.51166 181.26056 189.00948 196.75838 204.50729 212.2562">1.3.2Capability...............</tspan><tspan
         id="tspan48"
         y="48.514999"
         x="230.20682">2</tspan><tspan
         id="tspan50"
         y="60.644001"
         x="0 4.9812999 7.7489104 22.911987 30.245457 35.226757 37.99437 42.421745 45.742283 51.277504 56.258801 60.188053 64.615433 73.478157 78.459457 82.886841 87.314217 91.7416 95.670845 102.91764 107.34502 112.32632 117.58259 121.45705 125.3594 130.3407 136.43582 140.31027 147.64374 154.70026 161.89325 169.08824 181.26154 189.01045 196.75935 204.50827 212.25717">1.4Role-basedaccesscontrol(RBAC).....</tspan><tspan
         id="tspan52"
         y="60.644001"
         x="230.20779">2</tspan><tspan
         id="tspan54"
         y="72.772003"
         x="0 4.9812999 7.7489104 22.911987 30.729639 34.631989 39.613289 45.14851 50.683731 54.004265 59.539486 64.52079 68.450035 72.877419 81.730179 86.711479 91.148827 95.576202 100.00359 103.93283 111.17963 115.60701 120.58831 125.84457 129.71902 133.62138 138.60268 150.26689 158.01581 165.76471 173.51363 181.26253 189.01144 196.76036 204.50926 212.25818">1.5Group-basedaccesscontrol.........</tspan><tspan
         id="tspan56"
         y="72.772003"
         x="230.20879">2</tspan><tspan
         id="tspan58"
         y="84.901001"
         x="0 4.9812999 7.7489104 22.911987 29.692533 34.950794 39.932095 48.233929 53.76915 56.536758 60.964138 68.165108 75.637054 83.109009 86.706497 94.178452 99.159752 105.38638 108.15398 113.41026 118.94547 127.52128 132.50258 136.92996 141.35735 145.78471 149.71397 156.97072 161.3981 166.37941 171.63567 175.51013 179.41248 184.39378 196.75537 204.50429 212.25319">1.6Example:UNIX/Linuxaccesscontrol...</tspan><tspan
         id="tspan60"
         y="84.901001"
         x="230.21378">2</tspan><tspan
         id="tspan62"
         y="97.029999"
         x="0 4.9812999 7.7489104 22.911987 30.383938 38.406818 43.942039 46.709652 51.137028 56.403259 63.595261 68.576561 74.111778 77.986237 83.521454 88.502754 92.405106 95.172714 98.768219 111.52832 119.27723 127.02614 134.76509 142.51399 150.26291 158.01181 165.76073 173.50964 181.25854 189.00746 196.75636 204.50528 212.2542">1.7Ambientauthority..............</tspan><tspan
         id="tspan64"
         y="97.029999"
         x="230.21477">3</tspan><tspan
         id="tspan66"
         y="109.158"
         x="0 4.9812999 7.7489104 22.911987 30.383938 34.811317 39.238697 43.666077 47.595325 54.852081 59.279461 64.260765 69.517029 73.391487 78.372787 82.275139 88.360291 91.127899 99.429733 104.96496 107.73257 112.15995 120.46178 124.88916 130.1554 134.02985 139.01115 142.8856 145.64325 150.62454 165.76372 173.51262 181.26154 189.01045 196.75935 204.50827 212.25717">1.8Accesscontorlimplementation.......</tspan><tspan
         id="tspan68"
         y="109.158"
         x="230.20779">3</tspan></text>
<text
       id="text74"
       style="font-variant:normal;font-weight:normal;font-size:9.96259975px;font-family:CMBX10;-inkscape-font-specification:CMBX10;writing-mode:lr-tb;fill:#000000;fill-opacity:1;fill-rule:nonzero;stroke:none"
       transform="matrix(1,0,0,-1,42.52,492.798)"><tspan
         id="tspan72"
         y="0"
         x="0 14.9439 21.309006 26.560291 31.652176 38.017281 42.735569 45.917622 50.054096 59.916073 69.463234 75.510529 81.875633 87.126923 90.308975 244.40649">2Securitymodels3</tspan></text>
<text
       id="text162"
       style="font-variant:normal;font-weight:normal;font-size:9.96259975px;font-family:CMR10;-inkscape-font-specification:CMR10;writing-mode:lr-tb;fill:#000000;fill-opacity:1;fill-rule:nonzero;stroke:none"
       transform="matrix(1,0,0,-1,57.464,480.669)"><tspan
         id="tspan76"
         y="0"
         x="0 4.9812999 7.7489104 22.911987 33.151546 38.686768 43.668068 50.860069 55.84137 59.743721 67.498604 73.033829 77.461205 81.888588 87.423805 91.326157 94.093765 97.68927 106.26508 115.39779 120.65804 126.19327 130.62065 133.38826 137.3175 150.27087 158.01979 165.76869 173.51761 181.25656 189.00546 196.75438 204.50328 212.2522">2.1WhatareSecurityModels?.........</tspan><tspan
         id="tspan78"
         y="0"
         x="230.21277">3</tspan><tspan
         id="tspan80"
         y="12.128"
         x="0 4.9812999 7.7489104 22.911987 30.106977 35.642197 43.397087 50.453594 54.880974 57.648586 60.416195 63.736729 69.963356 74.944656 81.446251 86.427551 91.962769 97.497986 100.2656 108.56445 117.69716 122.95741 128.49263 132.92001 139.00517 142.87962 149.93613 156.16277 162.9433 173.51262 181.26154 189.01045 196.75935 204.50827 212.25717">2.2TheBell-LaPadulaModel(BLP)......</tspan><tspan
         id="tspan82"
         y="12.128"
         x="230.20779">3</tspan><tspan
         id="tspan84"
         y="24.257"
         x="22.914 27.8953 30.66291 35.644211 38.411819 54.790337 62.539246 67.528519 71.955894 75.858246 81.116508 83.884117 88.311493 98.824028 103.80533 112.6581 119.71461 125.94123 136.04929 143.24428 148.22557 156.5274 162.33162 167.31293 172.84814 177.27553 182.54175 186.4162 196.76137 204.51028 212.25919">2.2.1OverviewonBLPComponents...</tspan><tspan
         id="tspan86"
         y="24.257"
         x="230.20981">3</tspan><tspan
         id="tspan88"
         y="36.386002"
         x="22.914 27.8953 30.66291 35.644211 38.411819 54.790337 61.01696 65.444336 70.433609 74.860992 81.384499 84.42907 89.964287 95.499512 99.926888 103.80135 106.56895 111.55025 120.84138 123.88595 128.86725 136.5255 141.50681 147.58997 150.63454 155.0619 159.48929 163.36374 167.293 175.3607 182.55569 185.3233 190.30461 194.23386 198.1631 200.93073 206.46594">2.2.2Levelfunctionforobjects:Classif-</tspan><tspan
         id="tspan90"
         y="48.341"
         x="54.793999 59.221378 64.202682 68.077133 70.844742 75.826042 88.275307 96.024223 103.77313 111.52204 119.27095 127.01986 134.76877 142.51768 150.26659 158.0155 165.76442 173.51332 181.26224 189.01114 196.76006 204.50896 212.25787">cation.................</tspan><tspan
         id="tspan92"
         y="48.341"
         x="230.20848">3</tspan><tspan
         id="tspan94"
         y="60.470001"
         x="22.914 27.8953 30.66291 35.644211 38.411819 54.790337 61.846844 68.073471 78.181526 83.716743 87.619095 92.600395 98.404602 102.83199 106.73434 110.60879 113.3764 117.80378 127.02317 134.77208 142.521 150.2699 158.01881 165.76772 173.51663 181.26555 189.01445 196.76337 204.5023 212.25122">2.2.3BLPproperties............</tspan><tspan
         id="tspan96"
         y="60.470001"
         x="230.21179">4</tspan><tspan
         id="tspan98"
         y="72.598"
         x="22.914 27.8953 30.66291 35.644211 38.411819 54.790337 61.846844 66.828148 70.757393 73.525002 81.279892 86.815109 91.242493 95.669868 101.20509 105.10744 107.87505 111.47056 120.04636 127.24135 132.77657 137.20395 142.18526 146.0876 150.51498 165.76074 173.50966 181.25858 189.00748 196.75639 204.50529 212.25421">2.2.4BasicSecurityTheorem.......</tspan><tspan
         id="tspan100"
         y="72.598"
         x="230.21478">4</tspan><tspan
         id="tspan102"
         y="84.726997"
         x="22.914 27.8953 30.66291 35.644211 38.411819 54.790337 61.846844 68.073471 78.181526 84.962067 88.864418 93.845718 99.380943 102.14855 106.57593 114.87776 127.0162 134.76511 142.51402 150.26292 158.01184 165.76074 173.50966 181.25858 189.00748 196.75639 204.50529 212.25421">2.2.5BLPProblems............</tspan><tspan
         id="tspan104"
         y="84.726997"
         x="230.21478">4</tspan><tspan
         id="tspan106"
         y="96.855003"
         x="0 4.9812999 7.7489104 22.911987 30.106977 34.809326 39.798595 44.225975 48.128323 55.320324 59.468754 65.003975 69.985275 75.520493 81.05571 85.483093 88.250702 96.025513 103.77443 111.52334 119.27225 127.02116 134.77007 142.51898 150.26788 158.0168 165.7657 173.51462 181.26353 189.01244 196.76135 204.51025 212.25917">2.3Covertchannels................</tspan><tspan
         id="tspan108"
         y="96.855003"
         x="230.20978">4</tspan><tspan
         id="tspan110"
         y="108.984"
         x="22.914 27.8953 30.66291 35.644211 38.411819 54.790337 61.985325 67.520546 75.275436 79.149887 83.052238 88.033539 93.568756 98.827019 104.36224 107.12985 109.89746 112.66507 115.43268 119.02818 127.60399 133.13921 137.04156 142.02286 147.83704 152.26442 156.16676 159.76227 173.50867 181.25757 189.00648 196.75539 204.5043 212.25322">2.3.1Thetranquillityproperty......</tspan><tspan
         id="tspan112"
         y="108.984"
         x="230.21379">4</tspan><tspan
         id="tspan114"
         y="121.113"
         x="0 4.9812999 7.7489104 22.911987 30.522417 34.949799 39.377178 42.144787 47.126087 51.055336 54.984585 57.752197 63.287418 67.714798 72.696098 76.570549 79.338158 84.319458 96.031494 103.77044 111.51935 119.26826 127.01717 134.76608 142.515 150.2639 158.01282 165.76172 173.51064 181.25955 189.00845 196.75737 204.50627 212.25519">2.4Declassifcation................</tspan><tspan
         id="tspan116"
         y="121.113"
         x="230.21576">4</tspan><tspan
         id="tspan118"
         y="133.241"
         x="0 4.9812999 7.7489104 22.911987 30.383938 37.717407 47.271542 52.796799 58.33202 66.63385 80.527695 88.276604 96.025513 103.77443 111.52334 119.27225 127.02116 134.77007 142.51898 150.26788 158.0168 165.7657 173.51462 181.26353 189.01244 196.76135 204.51025 212.25917">2.5NRLpump..................</tspan><tspan
         id="tspan120"
         y="133.241"
         x="230.20978">5</tspan><tspan
         id="tspan122"
         y="145.37"
         x="0 4.9812999 7.7489104 22.911987 26.509481 31.765751 35.640205 40.067585 45.048885 48.951237 51.718845 55.32431 65.035851 72.78476 80.533676 88.282585 96.031494 103.7804 111.51935 119.26826 127.01717 134.76608 142.515 150.2639 158.01282 165.76172 173.51064 181.25955 189.00845 196.75737 204.50627 212.25519">2.6Integrity....................</tspan><tspan
         id="tspan124"
         y="145.37"
         x="230.21576">5</tspan><tspan
         id="tspan126"
         y="157.49899"
         x="22.914 27.8953 30.66291 35.644211 38.411819 54.790337 61.570881 65.473228 68.240845 73.776062 78.203438 80.971054 86.506271 89.27388 93.701263 100.95802 105.93932 112.30144 115.89893 121.1552 125.02966 129.45703 134.43834 138.34068 141.10829 144.7038 153.28957 161.5914 166.01878 170.16721 175.70242 180.68373 186.21895 188.98656 192.9158 201.21764 212.26019">2.6.1PrinciplesofIntegritymechanisms.</tspan><tspan
         id="tspan128"
         y="157.49899"
         x="230.2108">5</tspan><tspan
         id="tspan130"
         y="169.627"
         x="0 4.9812999 7.7489104 22.911987 30.106977 35.642197 43.397087 50.453594 54.05109 61.107601 71.897095 81.029808 86.290062 91.825287 96.252663 103.77243 111.52135 119.27026 127.01917 134.76808 142.51698 150.2659 158.0148 165.76372 173.51262 181.26154 189.01045 196.75935 204.50827 212.25717">2.7TheBIBAModel...............</tspan><tspan
         id="tspan132"
         y="169.627"
         x="230.20779">5</tspan><tspan
         id="tspan134"
         y="181.756"
         x="22.914 27.8953 30.66291 35.644211 38.411819 54.790337 61.846844 65.444336 72.500847 82.99147 87.701782 92.683083 96.585434 99.353043 104.33434 109.59061 116.48373 123.5253 129.75192 134.45427 141.64926 144.9698 151.8958 156.87709 160.75156 165.17892 169.08128 172.40181 180.70364 185.68495 189.5873 197.86423 200.9088 205.89011">2.7.1BIBAvariant:Low-water-markfor</tspan><tspan
         id="tspan136"
         y="193.711"
         x="54.793999 58.723251 64.258469 70.351593 73.396164 77.823547 82.250923 86.125381 96.022224 103.77114 111.52005 119.26896 127.01787 134.76678 142.51569 150.2646 158.0135 165.76242 173.51134 181.26024 189.00916 196.75806 204.50697 212.25587">subjects................</tspan><tspan
         id="tspan138"
         y="193.711"
         x="230.2065">5</tspan><tspan
         id="tspan140"
         y="205.84"
         x="22.914 27.8953 30.66291 35.644211 38.411819 54.790337 61.846844 65.444336 72.500847 85.601669 90.302025 95.283325 99.185677 101.95329 106.93459 112.19085 121.69418 126.67548 138.46921 144.69583 149.39818 156.59317 159.92366 166.83969 171.821 175.69545 180.12283 184.02518 187.34572 195.64755 200.62885 204.5312">2.7.2BIBAvariant2:Low-water-mark</tspan><tspan
         id="tspan142"
         y="217.795"
         x="54.793999 57.83857 62.81987 70.039764 75.021065 81.114189 84.15876 88.586143 93.013519 103.77213 111.52104 119.26995 127.01887 134.76778 142.51669 150.26559 158.01451 165.76341 173.51233 181.26123 189.01015 196.75906 204.50797 212.25688">forobject...............</tspan><tspan
         id="tspan144"
         y="217.795"
         x="230.20749">5</tspan><tspan
         id="tspan146"
         y="229.924"
         x="22.914 27.8953 30.66291 35.644211 38.411819 54.790337 61.846844 65.444336 72.500847 83.300308 90.772255 96.30748 101.8427 104.61031 108.48476 111.25237 116.23367 121.7689 126.7502 132.83536 137.81665 142.24403 146.11848 148.88609 153.8674 159.40262 173.51364 181.26256 189.01146 196.76038 204.50928 212.25819">2.7.3BIBAAdditionalactions......</tspan><tspan
         id="tspan148"
         y="229.924"
         x="230.2088">6</tspan><tspan
         id="tspan150"
         y="242.052"
         x="22.914 27.8953 30.66291 35.644211 38.411819 54.790337 60.325554 65.306854 70.842079 73.609688 77.484138 80.251755 84.679131 89.660431 93.534889 96.302498 101.2838 111.52136 119.27027 127.01919 134.7681 142.517 150.26591 158.01483 165.76373 173.51265 181.26155 189.01047 196.75938 204.50829 212.2572">2.7.4Sanitization..............</tspan><tspan
         id="tspan152"
         y="242.052"
         x="230.20781">6</tspan><tspan
         id="tspan154"
         y="254.181"
         x="0 4.9812999 7.7489104 22.911987 30.106977 35.088276 43.11116 48.646381 51.41399 56.949211 59.71682 65.252045 73.560852 77.490097 81.91748 86.344856 91.880081 95.782433 98.550041 102.14554 110.72134 116.25657 120.15892 125.14022 130.95439 135.38177 139.28412 143.15857 145.92619 150.35356 158.01878 165.7677 173.51662 181.26552 189.01443 196.76334 204.51225 212.25121">2.8Combiningsecurityproperties........</tspan><tspan
         id="tspan156"
         y="254.181"
         x="230.21178">6</tspan><tspan
         id="tspan158"
         y="266.31"
         x="22.914 27.8953 30.66291 35.644211 38.411819 54.790337 61.985325 67.520546 70.288155 75.82338 80.250755 84.180008 91.934891 101.33759 106.31889 109.0865 115.18163 124.31434 129.56464 135.09985 139.52722 150.26492 158.01382 165.76274 173.51166 181.26056 189.00948 196.75838 204.50729 212.2562">2.8.1ChineseWallModel.........</tspan><tspan
         id="tspan160"
         y="266.31"
         x="230.20682">6</tspan></text>
<text
       id="text166"
       style="font-variant:normal;font-weight:normal;font-size:9.96259975px;font-family:CMBX10;-inkscape-font-specification:CMBX10;writing-mode:lr-tb;fill:#000000;fill-opacity:1;fill-rule:nonzero;stroke:none"
       transform="matrix(1,0,0,-1,42.52,192.152)"><tspan
         id="tspan164"
         y="0"
         x="0 14.9439 23.605385 29.97049 36.335594 39.517651 42.699703 47.950989 58.131771 63.223656 67.94194 73.988243 80.353348 84.808624 90.537117 96.265617 100.9839 106.55299 112.9181 118.97437 244.41246">3Appliedcryptography6</tspan></text>
<text
       id="text258"
       style="font-variant:normal;font-weight:normal;font-size:9.96259975px;font-family:CMR10;-inkscape-font-specification:CMR10;writing-mode:lr-tb;fill:#000000;fill-opacity:1;fill-rule:nonzero;stroke:none"
       transform="matrix(1,0,0,-1,57.464,180.024)"><tspan
         id="tspan168"
         y="0"
         x="0 4.9812999 7.7489104 22.911987 33.151546 38.407814 46.993584 54.188576 58.090923 63.349186 68.884407 72.758858 77.740158 82.721458 86.62381 91.60511 97.140335 102.3966 110.9724 120.10512 125.08642 128.96088 132.83533 137.26271 141.16505 145.09431 158.01779 165.76671 173.51561 181.26453 189.01344 196.76234 204.51126 212.26016">3.1WhyCryptographyMatters?........</tspan><tspan
         id="tspan170"
         y="0"
         x="230.21078">6</tspan><tspan
         id="tspan172"
         y="12.129"
         x="0 4.9812999 7.7489104 22.911987 29.280081 33.707462 37.60981 45.911644 48.679256 54.214478 59.195778 61.963387 66.944687 71.925987 80.531677 88.280594 96.029503 103.77841 111.52732 119.27623 127.02514 134.77405 142.52296 150.27187 158.01082 165.75974 173.50864 181.25755 189.00647 196.75537 204.50429 212.25319">3.2Terminology..................</tspan><tspan
         id="tspan174"
         y="12.129"
         x="230.21378">6</tspan><tspan
         id="tspan176"
         y="24.257"
         x="0 4.9812999 7.7489104 22.911987 30.383938 33.151546 37.080799 40.955254 45.936554 49.838902 58.414707 65.062752 72.811661 78.346886 82.774261 86.703514 93.895515 96.940086 101.92139 109.14128 113.57862 118.55992 124.08518 129.62041 135.15562 139.58299 144.84923 148.72368 151.4913 156.4726 159.2402 162.00781 165.60332 173.51163 181.26054 189.00945 196.75836 204.50728 212.25618">3.3History-Questforconfdentiality......</tspan><tspan
         id="tspan178"
         y="24.257"
         x="230.20679">6</tspan><tspan
         id="tspan180"
         y="36.386002"
         x="0 4.9812999 7.7489104 22.911987 30.660898 36.196117 43.951008 51.145996 53.913605 62.215439 69.960365 76.46196 81.44326 96.024521 103.77343 111.52234 119.27125 127.02016 134.76907 142.51797 150.26689 158.01581 165.76471 173.51363 181.26253 189.01144 196.76036 204.50926 212.25818">3.4OneTimePad................</tspan><tspan
         id="tspan182"
         y="36.386002"
         x="230.20879">7</tspan><tspan
         id="tspan184"
         y="48.514999"
         x="0 4.9812999 7.7489104 22.911987 28.447208 33.705467 42.007301 46.434681 50.309139 54.211487 56.979099 64.733986 69.161362 74.696587 79.123962 83.026314 88.284576 93.809837 97.684288 100.4519 105.4332 119.27723 127.02614 134.76509 142.51399 150.26291 158.01181 165.76073 173.50964 181.25854 189.00746 196.75636 204.50528 212.2542">3.5Symetricencryption.............</tspan><tspan
         id="tspan186"
         y="48.514999"
         x="230.21477">7</tspan><tspan
         id="tspan188"
         y="60.643002"
         x="22.914 27.8953 30.66291 35.644211 38.411819 54.790337 60.325554 64.200012 68.102364 72.529739 77.51104 89.140381 93.567764 96.335373 101.87059 107.40582 111.83319 119.27227 127.02118 134.77008 142.519 150.26791 158.01682 165.76573 173.51463 181.26355 189.01247 196.76137 204.51028 212.25919">3.5.1Streamcipher.............</tspan><tspan
         id="tspan190"
         y="60.643002"
         x="230.20981">7</tspan><tspan
         id="tspan192"
         y="72.772003"
         x="22.914 27.8953 30.66291 35.644211 38.411819 54.790337 61.846844 64.614456 69.87471 74.023132 82.608902 87.036285 89.803894 95.339111 100.87434 105.30171 109.20406 119.27027 127.01919 134.7681 142.517 150.26591 158.01483 165.76373 173.51265 181.26155 189.01047 196.75938 204.50829 212.2572">3.5.2Blockciphers.............</tspan><tspan
         id="tspan194"
         y="72.772003"
         x="230.20781">7</tspan><tspan
         id="tspan196"
         y="84.901001"
         x="0 4.9812999 7.7489104 22.911987 26.509481 31.765751 35.640205 40.067585 45.048885 48.951237 51.718845 55.32431 63.900116 67.774574 71.703819 76.962082 85.263916 93.56575 97.993134 101.86758 105.76994 108.53754 112.96493 127.02116 134.77007 142.51898 150.26788 158.0168 165.7657 173.51462 181.26353 189.01244 196.76135 204.51025 212.25917">3.6Integrity(symmetric)............</tspan><tspan
         id="tspan198"
         y="84.901001"
         x="230.20978">7</tspan><tspan
         id="tspan200"
         y="97.028999"
         x="22.914 27.8953 30.66291 35.644211 38.411819 54.790337 63.92305 68.350433 72.279678 76.218895 81.200188 86.181488 93.926414 101.39837 106.93359 110.80804 116.34326 120.77065 126.02691 129.90137 132.66898 137.09636 142.07765 145.9521 148.71973 153.70102 162.55379 169.74878 175.00903 180.54425 188.28917 192.16364 201.29634 208.4993 215.69429">3.6.1MessageAuthenticationCode(MAC)</tspan><tspan
         id="tspan202"
         y="97.028999"
         x="230.2088">7</tspan><tspan
         id="tspan204"
         y="109.158"
         x="22.914 27.8953 30.66291 35.644211 38.411819 54.790337 61.985325 66.966621 74.999466 80.534691 83.302299 88.837517 96.582443 101.00983 105.99113 111.52634 117.06157 122.59679 127.02417 132.28044 136.15489 138.9225 143.90379 146.67142 149.43903 153.03452 161.62029 166.60159 172.13681 180.98958 183.75719 189.01346 192.88791 197.31529 202.29659 206.19894 208.96655 212.56206">3.6.2Combineconfdentialityandintegrity</tspan><tspan
         id="tspan206"
         y="109.158"
         x="230.21379">7</tspan><tspan
         id="tspan208"
         y="-478.474"
         x="283.013 287.99429 290.7619 295.74323 298.51083 314.88934 322.3613 327.89651 331.77097 337.30618 341.73355 346.99979 350.87424 353.64185 358.06924 363.05054 366.92499 371.35236 380.32468 387.10522 392.64044 397.06784 400.97018 406.22845 411.76367 415.63812 418.40573 423.38702 432.35934 439.55435 442.32196 446.19641 455.16873 462.64066 466.56992">3.6.3AuthenticatedEncryptionwithAs-</tspan><tspan
         id="tspan210"
         y="-466.51901"
         x="314.89401 318.82324 324.0835 328.51089 331.2785 336.2598 340.13425 344.56161 353.4144 361.02481 366.00613 369.88058 378.17941 382.05389 389.52582 396.30637 403.77832 411.38876 418.11252 425.86142 433.61032 441.35925 449.10815 456.85706 464.60599 472.35489">sociatedData(AEAD)........</tspan><tspan
         id="tspan212"
         y="-466.51901"
         x="490.31546">8</tspan><tspan
         id="tspan214"
         y="-454.564"
         x="260.099 265.08029 267.8479 283.01099 290.48294 294.4122 299.67044 307.97229 316.27411 320.70151 324.57596 328.4783 331.24591 339.00079 343.42819 347.33054 352.58878 358.12402 361.99847 366.97977 371.96106 375.8634 380.84473 386.37994 391.6362 402.61301 410.36191 418.11081 425.85974 433.60864 441.35754 449.10645 456.85538 464.60428 472.35318">3.7Asymmetriccryptography..........</tspan><tspan
         id="tspan216"
         y="-454.564"
         x="490.31375">8</tspan><tspan
         id="tspan218"
         y="-442.60901"
         x="283.013 287.99429 290.7619 295.74323 298.51083 314.88934 322.49976 325.26736 330.24869 333.0163 336.89075 341.87204 347.96716 351.89642 354.66403 359.64532 365.18054 370.16183 374.03629 379.5715 383.47388 387.90125 394.86908 402.61801 410.36691 418.11581 425.86472 433.61365 441.36255 449.11145 456.86038 464.60928 472.35818">3.7.1Digitalsignatures...........</tspan><tspan
         id="tspan220"
         y="-442.60901"
         x="490.30881">8</tspan><tspan
         id="tspan222"
         y="-430.65302"
         x="283.013 287.99429 290.7619 295.74323 298.51083 314.88934 321.11597 323.88358 332.18539 334.953 338.82748 343.80878 347.68323 350.45084 355.43213 360.96735 371.62137 379.37027 387.11917 394.8681 402.617 410.36591 418.11481 425.86374 433.61264 441.36154 449.11047 456.85938 464.60828 472.35721">3.7.2Limitations..............</tspan><tspan
         id="tspan224"
         y="-430.65302"
         x="490.3078">8</tspan><tspan
         id="tspan226"
         y="-418.698"
         x="260.099 265.08029 267.8479 283.01099 290.48294 295.46423 299.39349 308.25623 311.30078 316.82605 322.36127 326.79861 330.66309 333.43069 338.41202 343.94724 356.12552 363.87442 371.62332 379.37225 387.12115 394.87006 402.61899 410.36789 418.11679 425.86569 433.61462 441.36353 449.11243 456.86136 464.61026 472.35916">3.8Hashfunctions................</tspan><tspan
         id="tspan228"
         y="-418.698"
         x="490.30978">8</tspan><tspan
         id="tspan230"
         y="-406.74301"
         x="283.013 287.99429 290.7619 295.74323 298.51083 314.88934 322.3613 331.49399 338.69696 356.12354 363.87244 371.62137 379.37027 387.11917 394.8681 402.617 410.36591 418.11481 425.86374 433.61264 441.36154 449.11047 456.85938 464.60828 472.35721">3.8.1HMAC................</tspan><tspan
         id="tspan232"
         y="-406.74301"
         x="490.3078">8</tspan><tspan
         id="tspan234"
         y="-394.78799"
         x="283.013 287.99429 290.7619 295.74323 298.51083 314.88934 322.49976 325.26736 330.24869 333.0163 336.89075 341.87204 347.96716 351.89642 354.66403 359.64532 365.18054 370.16183 374.03629 379.5715 383.47388 387.90125 395.14804 400.12933 408.98212 414.51733 419.49863 423.42789 432.29062 435.33517 440.87039 446.40561 450.83301 454.70746 457.47507 462.45636 467.99158">3.8.2Digitalsignaturesonhashfunctions</tspan><tspan
         id="tspan236"
         y="-394.78799"
         x="490.3118">8</tspan><tspan
         id="tspan238"
         y="-382.83301"
         x="283.013 287.99429 290.7619 295.74323 298.51083 314.88934 322.3613 327.61954 333.15475 337.05713 339.82474 348.68747 353.11484 358.65005 363.07742 366.9798 372.23804 377.77325 381.64774 384.41534 389.39664 402.61301 410.36194 418.11084 425.85974 433.60867 441.35757 449.10648 456.85538 464.60431 472.35321">3.8.3Hybridencryption..........</tspan><tspan
         id="tspan240"
         y="-382.83301"
         x="490.31378">9</tspan><tspan
         id="tspan242"
         y="-370.87799"
         x="260.099 265.08029 267.8479 283.01099 290.62143 293.38904 301.69086 306.11826 309.43878 316.91074 321.3381 324.10571 326.87332 335.17517 340.15646 349.0192 353.9985 358.42587 367.00168 371.42908 376.68732 380.8457 386.37097 391.35226 396.88748 401.8688 410.37088 418.11978 425.85873 433.60764 441.35654 449.10547 456.85437 464.60327 472.3522">3.9Dife-Hellmankeyexchange.........</tspan><tspan
         id="tspan244"
         y="-370.87799"
         x="490.31277">9</tspan><tspan
         id="tspan246"
         y="-358.922"
         x="283.013 287.99429 290.7619 295.74323 298.51083 314.88934 320.56601 325.54733 329.44968 336.36572 341.34702 345.24936 354.11209 358.04135 362.46872 366.89609 370.79846 375.22583 379.6532 394.87405 402.61301 410.36194 418.11084 425.85974 433.60867 441.35757 449.10648 456.85538 464.60431 472.35321">3.9.1Forwardsecrecy...........</tspan><tspan
         id="tspan248"
         y="-358.922"
         x="490.31378">9</tspan><tspan
         id="tspan250"
         y="-346.96701"
         x="283.013 287.99429 290.7619 295.74323 298.51083 314.88934 321.94583 326.92715 330.86636 333.63397 341.37891 349.68073 354.66202 358.53647 364.07172 371.62735 379.37625 387.12515 394.87405 402.61301 410.36194 418.11084 425.85974 433.60867 441.35757 449.10648 456.85538 464.60431 472.35321">3.9.2Basicmaths..............</tspan><tspan
         id="tspan252"
         y="-346.96701"
         x="490.31378">9</tspan><tspan
         id="tspan254"
         y="-335.01199"
         x="283.013 287.99429 290.7619 295.74323 298.51083 314.88934 321.94583 326.92715 330.86636 333.63397 341.37891 348.98932 351.75693 360.05878 364.48615 367.80667 375.27863 379.70602 382.47363 385.24124 393.54306 398.52435 407.37714 412.36639 416.79379 425.3696 429.79697 435.05524 439.20364 444.73886 449.72018 455.2554 460.23669 472.35519">3.9.3BasicDife-Hellmankeyexchange.</tspan><tspan
         id="tspan256"
         y="-335.01199"
         x="490.30582">9</tspan></text>
<text
       id="text262"
       style="font-variant:normal;font-weight:normal;font-size:9.96259975px;font-family:CMBX10;-inkscape-font-specification:CMBX10;writing-mode:lr-tb;fill:#000000;fill-opacity:1;fill-rule:nonzero;stroke:none"
       transform="matrix(1,0,0,-1,302.619,493.118)"><tspan
         id="tspan260"
         y="0"
         x="0 14.9439 23.605385 29.97049 34.425766 40.790871 46.042156 52.088459 56.543732 59.725788 64.817673 70.386765 74.842041 78.024094 83.752586 244.40848">4Authentication9</tspan></text>
<text
       id="text306"
       style="font-variant:normal;font-weight:normal;font-size:9.96259975px;font-family:CMR10;-inkscape-font-specification:CMR10;writing-mode:lr-tb;fill:#000000;fill-opacity:1;fill-rule:nonzero;stroke:none"
       transform="matrix(1,0,0,-1,317.563,481.163)"><tspan
         id="tspan264"
         y="0"
         x="0 4.9812999 7.7489104 22.911987 32.324654 37.027 42.285259 49.532055 53.406509 61.715317 68.495865 72.398216 77.100563 82.079872 89.834755 100.07432 105.59957 113.90839 120.54347 125.52477 134.3875 141.85945 145.76181 158.01979 165.76869 173.51761 181.26653 189.01543 196.75438 204.50328 212.2522">4.1WaystoProveWhoYouAre........</tspan><tspan
         id="tspan266"
         y="0"
         x="230.21277">9</tspan><tspan
         id="tspan268"
         y="11.955"
         x="0 4.9812999 7.7489104 22.911987 33.151546 38.686768 43.668068 50.870033 55.849339 60.830639 69.683403 77.43232 82.967537 87.669884 94.864876 102.06584 108.56744 113.54874 117.47798 121.40723 128.32327 133.30457 137.20692 142.74214 150.26788 158.0168 165.7657 173.51462 181.26353 189.01244 196.76135 204.51025 212.25917">4.2WhatyouKnow:Passwords.........</tspan><tspan
         id="tspan270"
         y="11.955"
         x="230.20978">9</tspan><tspan
         id="tspan272"
         y="23.91"
         x="22.914 27.8953 30.66291 35.644211 38.411819 54.790337 61.985325 67.520546 72.501846 75.269455 78.037064 82.464447 87.999664 92.980965 97.408348 100.72888 108.06235 112.49969 116.42894 122.23315 127.21445 132.74968 136.67892 155.30301 162.08356 165.9859 170.96721 174.84166 180.10191 184.5293 189.51059 206.46494">4.2.1Challenge-ResponseProtocol-</tspan><tspan
         id="tspan274"
         y="35.866001"
         x="54.794998 61.296593 66.277893 70.207146 74.136391 81.052429 86.03373 89.936081 98.798805 102.67326 106.57561 111.55692 117.09213 121.02139 124.06596 128.49333 142.51768 150.2666 158.0155 165.76442 173.51332 181.26224 189.01115 196.76006 204.50897 212.25787">Passwordtransfer..........</tspan><tspan
         id="tspan276"
         y="35.866001"
         x="230.2085">9</tspan><tspan
         id="tspan278"
         y="47.820999"
         x="22.914 27.8953 30.66291 35.644211 38.411819 54.790337 60.325554 65.306854 68.074463 71.948921 76.376297 85.239029 92.710976 97.692276 101.62153 110.4743 117.11237 123.62393 128.60522 132.53448 136.46373 143.37976 148.36107 152.26341 161.11618 166.6514 170.52586 175.50716 179.40952 184.39081 189.37212 196.75838 204.50729 212.2562">4.2.2SaltedHash-PasswordStorage...</tspan><tspan
         id="tspan280"
         y="47.820999"
         x="230.20682">9</tspan><tspan
         id="tspan282"
         y="59.776001"
         x="0 4.9812999 7.7489104 22.911987 33.151546 38.686768 43.668068 50.870033 55.849339 60.830639 69.683403 74.664703 78.567055 86.311981 92.960022 100.01653 102.78414 107.76544 116.06728 120.49466 124.36911 128.27147 131.03908 135.46645 142.51399 150.26291 158.01181 165.76073 173.50964 181.25854 189.00746 196.75636 204.50528 212.2542">4.3Whatyouare-Biometrics..........</tspan><tspan
         id="tspan284"
         y="59.776001"
         x="225.23346 230.21477">10</tspan><tspan
         id="tspan286"
         y="71.731003"
         x="22.914 27.8953 30.66291 35.644211 38.411819 54.790337 61.570881 67.106102 71.008453 75.989754 78.757362 87.059196 91.486572 96.752808 103.77544 111.52435 119.27326 127.02217 134.77109 142.51999 150.26891 158.01782 165.76672 173.51564 181.26454 189.01346 196.76236 204.51128 212.26019">4.3.1Enrolment...............</tspan><tspan
         id="tspan288"
         y="71.731003"
         x="225.22949 230.2108">10</tspan><tspan
         id="tspan290"
         y="83.685997"
         x="22.914 27.8953 30.66291 35.644211 38.411819 54.790337 61.43539 65.86277 69.765121 72.53273 78.067947 82.495331 87.476631 91.351082 94.118698 99.099998 111.52934 119.26828 127.01719 134.7661 142.51501 150.26392 158.01283 165.76175 173.51065 181.25957 189.00847 196.75739 204.5063 212.2552">4.3.2Verifcation..............</tspan><tspan
         id="tspan292"
         y="83.685997"
         x="225.23448 230.21577">10</tspan><tspan
         id="tspan294"
         y="95.640999"
         x="22.914 27.8953 30.66291 35.644211 38.411819 54.790337 61.570881 65.473228 70.454529 75.989754 78.757362 83.184738 91.486572 98.743332 105.93832 108.70593 112.58039 121.43316 128.48967 131.25728 136.23857 144.54041 148.96779 152.84224 156.7446 159.51221 163.93959 173.51762 181.26654 189.00549 196.75439 204.50331 212.25221">4.3.3ProblemswithBiometrics......</tspan><tspan
         id="tspan296"
         y="95.640999"
         x="225.23149 230.2128">10</tspan><tspan
         id="tspan298"
         y="107.597"
         x="0 4.9812999 7.7489104 22.911987 33.151546 38.686768 43.668068 50.870033 55.849339 60.830639 69.683403 75.218628 79.920975 84.900284 89.32766 96.528625 102.89672 107.87802 112.85733 117.28471 122.81993 134.76907 142.51797 150.26689 158.01581 165.76471 173.51363 181.26253 189.01144 196.76036 204.50926 212.25818">4.4Whatyouhave:Tokens...........</tspan><tspan
         id="tspan300"
         y="107.597"
         x="225.22749 230.20879">10</tspan><tspan
         id="tspan302"
         y="119.552"
         x="0 4.9812999 7.7489104 22.911987 32.044704 37.026005 41.174431 46.709652 49.477261 55.012482 62.767368 70.239319 75.774536 79.648994 85.184212 89.611595 94.867859 98.742317 101.50993 105.93731 110.91861 114.79306 117.56067 122.54197 134.77206 142.52097 150.26988 158.01878 165.7677 173.51662 181.26552 189.01443 196.76334 204.51225 212.26117">4.5MachineAuthentication...........</tspan><tspan
         id="tspan304"
         y="119.552"
         x="225.23047 230.21178">10</tspan></text>
<text
       id="text310"
       style="font-variant:normal;font-weight:normal;font-size:9.96259975px;font-family:CMBX10;-inkscape-font-specification:CMBX10;writing-mode:lr-tb;fill:#000000;fill-opacity:1;fill-rule:nonzero;stroke:none"
       transform="matrix(1,0,0,-1,302.619,339.693)"><tspan
         id="tspan308"
         y="0"
         x="0 14.9439 23.605385 29.97049 35.697987 40.949276 45.667561 50.186596 55.755692 60.47398 63.656033 69.225128 76.232819 80.688095 87.0532 90.235252 96.600357 102.64666 105.82871 112.19382 121.73799 127.30708 133.6722 143.85297 149.42206 153.87733 158.33261 163.9017 168.68475 174.73105 238.677 244.40549">5Adversarialthinkingandattacks10</tspan></text>
<text
       id="text360"
       style="font-variant:normal;font-weight:normal;font-size:9.96259975px;font-family:CMR10;-inkscape-font-specification:CMR10;writing-mode:lr-tb;fill:#000000;fill-opacity:1;fill-rule:nonzero;stroke:none"
       transform="matrix(1,0,0,-1,317.563,327.738)"><tspan
         id="tspan312"
         y="0"
         x="0 4.9812999 7.7489104 22.911987 33.151546 38.407814 46.993584 52.528805 56.403259 61.93848 67.473701 76.049507 83.242508 87.116959 90.991417 95.972717 100.12114 105.3794 109.30865 119.27325 127.02216 134.77106 142.51997 150.26889 158.01779 165.76671 173.51561 181.26453 189.01344 196.76234 204.51126 212.26016">5.1WhyStudyAttacks?.............</tspan><tspan
         id="tspan314"
         y="0"
         x="225.22948 230.21078">10</tspan><tspan
         id="tspan316"
         y="11.955"
         x="0 4.9812999 7.7489104 22.911987 30.383938 35.086285 45.608784 50.590084 54.492432 62.237358 69.430359 73.30481 77.179268 82.160568 86.318954 91.577217 98.824013 106.43444 110.86182 116.39704 119.16465 123.867 128.8463 133.27368 138.8089 150.26788 158.0168 165.7657 173.51462 181.26353 189.01244 196.76135 204.51025 212.25917">5.2HowareAttacksDeployed?.........</tspan><tspan
         id="tspan318"
         y="11.955"
         x="225.22849 230.20978">10</tspan><tspan
         id="tspan320"
         y="23.91"
         x="22.914 27.8953 30.66291 35.644211 38.411819 54.790337 61.985325 67.520546 75.275436 80.810654 85.238029 89.665413 95.20063 99.102982 101.87059 105.46609 114.0419 120.82245 126.35767 131.33897 134.10658 139.6418 144.06918 148.49655 152.39891 155.16652 160.70174 169.00058 175.78113 179.68349 184.94374 189.37111 193.79849 197.72774 204.5063 212.2552">5.2.1TheSecurityEngineeringProcess..</tspan><tspan
         id="tspan322"
         y="23.91"
         x="225.23448 230.21577">10</tspan><tspan
         id="tspan324"
         y="35.865002"
         x="22.914 27.8953 30.66291 35.644211 38.411819 54.790337 61.985325 67.520546 75.275436 82.46843 86.342888 90.217339 95.198639 99.347069 107.93284 114.71338 120.2486 125.2299 127.98755 133.52277 137.96011 142.3875 146.28984 149.04749 154.58272 162.89153 169.67206 173.57442 178.83467 183.26205 187.68942 191.61868 204.5043 212.25322">5.2.2TheAttackEngineeringProcess..</tspan><tspan
         id="tspan326"
         y="35.865002"
         x="225.23248 230.21379">10</tspan><tspan
         id="tspan328"
         y="47.82"
         x="0 4.9812999 7.7489104 22.911987 29.692533 34.950794 40.486015 43.253624 48.234924 51.002533 57.377602 62.912823 67.615173 74.810158 81.240021 84.007629 92.033501 95.962753 100.39013 104.81751 110.35273 114.25508 117.02269 120.62816 128.37706 134.19124 139.17255 141.94016 144.70776 149.13515 156.89401 164.36597 168.24042 173.77563 177.67799 182.10536 187.08667 193.46173 201.76357 207.02382 212.55905 216.98642">5.3Exploitfawsinsecuritypolicy/threatmodel</tspan><tspan
         id="tspan330"
         y="47.82"
         x="225.23346 230.21477">11</tspan><tspan
         id="tspan332"
         y="59.776001"
         x="0 4.9812999 7.7489104 22.911987 29.692533 34.950794 40.486015 43.253624 48.234924 51.002533 58.194534 63.729755 68.442062 75.637054 82.88385 85.651459 94.504227 98.433479 102.86086 107.28824 112.82346 116.72581 119.49342 123.09888 131.67468 139.97652 144.4039 148.55232 154.08755 159.06885 164.60406 167.37167 171.30093 179.60277 189.01144 196.76036 204.50926 212.25818">5.4Exploitfawsinsecuritymechanisms....</tspan><tspan
         id="tspan334"
         y="59.776001"
         x="225.22749 230.20879">11</tspan><tspan
         id="tspan336"
         y="71.731003"
         x="0 4.9812999 7.7489104 22.911987 29.692533 34.950794 40.486015 43.253624 48.234924 51.002533 58.194534 63.729755 68.442062 75.637054 82.88385 85.651459 94.504227 97.271835 105.57367 111.10889 113.8765 118.30388 126.60572 131.0331 136.29933 140.17378 145.15508 149.02954 151.79715 156.77844 165.76073 173.50964 181.25854 189.00746 196.75636 204.50528 212.2542">5.5Exploitfawsinimplementation.......</tspan><tspan
         id="tspan338"
         y="71.731003"
         x="225.23346 230.21477">11</tspan><tspan
         id="tspan340"
         y="83.685997"
         x="0 4.9812999 7.7489104 22.911987 28.588676 32.491028 37.472328 49.091709 53.020958 58.835129 63.262508 67.689888 70.457497 75.992722 83.737648 87.612099 95.920906 100.90221 105.32959 110.86481 115.29219 119.19454 121.96215 129.70708 134.68837 138.56284 142.43729 147.41858 151.56702 156.82527 165.7657 173.51462 181.26353 189.01244 196.76135 204.51025 212.25917">5.6Fromspecifctogenericattacks.......</tspan><tspan
         id="tspan342"
         y="83.685997"
         x="225.22849 230.20978">11</tspan><tspan
         id="tspan344"
         y="95.640999"
         x="0 4.9812999 7.7489104 22.911987 30.245457 34.672836 39.654137 43.583385 48.564686 54.099907 56.867516 62.402737 70.711548 75.692848 81.497055 86.478355 92.01358 99.215538 104.19684 108.0713 111.94575 116.92705 121.07548 126.33374 134.76608 142.515 150.2639 158.01282 165.76172 173.51064 181.25955 189.00845 196.75737 204.50627 212.25519">5.7Reasoningaboutattacks...........</tspan><tspan
         id="tspan346"
         y="95.640999"
         x="225.23447 230.21576">11</tspan><tspan
         id="tspan348"
         y="107.596"
         x="22.914 27.8953 30.66291 35.644211 38.411819 54.790337 60.325554 67.520546 74.854012 78.451508 86.061943 96.030518 103.77943 111.52834 119.27725 127.02616 134.77507 142.51402 150.26292 158.01184 165.76074 173.50966 181.25858 189.00748 196.75639 204.50529 212.25421">5.7.1STRIDE................</tspan><tspan
         id="tspan350"
         y="107.596"
         x="225.23349 230.21478">11</tspan><tspan
         id="tspan352"
         y="119.551"
         x="22.914 27.8953 30.66291 35.644211 38.411819 54.790337 61.985325 66.966621 75.268456 83.580254 88.561554 99.815308 109.22797 113.65535 118.63665 123.89491 129.43013 133.85751 137.78676 141.71602 146.14339 155.79117 160.22852 165.48479 171.02 179.32184 183.74922 187.65157 192.63287 196.50732 199.27493 204.25624">5.7.2CommonWeaknessesenumeration</tspan><tspan
         id="tspan354"
         y="131.507"
         x="54.794998 58.669456 65.864449 76.104004 82.884552 96.024223 103.77313 111.52204 119.27096 127.01987 134.76877 142.51768 150.2666 158.0155 165.76442 173.51332 181.26224 189.01115 196.76006 204.50897 212.25787">(CWE)................</tspan><tspan
         id="tspan356"
         y="131.507"
         x="225.22719 230.2085">11</tspan><tspan
         id="tspan358"
         y="286.76001"
         x="-22.416">1</tspan></text>
</g></svg>